<?xml version="1.0" encoding="utf-8"?>
<!-- Generator: Adobe Illustrator 24.1.1, SVG Export Plug-In . SVG Version: 6.00 Build 0)  -->
<svg version="1.1" id="Layer_1" xmlns="http://www.w3.org/2000/svg" xmlns:xlink="http://www.w3.org/1999/xlink" x="0px" y="0px"
	 viewBox="0 0 88 88" style="enable-background:new 0 0 88 88;" xml:space="preserve">
<style type="text/css">
	.st0{fill-rule:evenodd;clip-rule:evenodd;fill:#BF5E9A;}
	.st1{fill-rule:evenodd;clip-rule:evenodd;fill:#B25995;}
</style>
<rect id="background" class="st0" width="88" height="88"/>
<path class="st1" d="M29.4,29.4C29.8,29,30,28.6,30,28V0h-4v26H0v4h28C28.5,30,29,29.8,29.4,29.4L29.4,29.4L29.4,29.4z M29.4,58.6
	C29.8,59,30,59.5,30,60v28h-4V62H0v-4h28C28.6,58,29,58.2,29.4,58.6L29.4,58.6z M58.6,58.6C58.2,59,58,59.4,58,60v28h4V62h26v-4H60
	C59.5,58,59,58.2,58.6,58.6L58.6,58.6L58.6,58.6z M62,26V0h-4v28c0,0.5,0.2,1,0.6,1.4C59,29.8,59.4,30,60,30h28v-4H62z M18,36
	c0-1.1,0.9-2,2-2h10c1.1,0,2,0.9,2,2s-0.9,2-2,2H20C18.9,38,18,37.1,18,36z M18,52c0-1.1,0.9-2,2-2h10c1.1,0,2,0.9,2,2s-0.9,2-2,2
	H20C18.9,54,18,53.1,18,52z M34,26c0-1.1,0.9-2,2-2s2,0.9,2,2v4c0,1.1-0.9,2-2,2s-2-0.9-2-2V26z M50,26c0-1.1,0.9-2,2-2s2,0.9,2,2v4
	c0,1.1-0.9,2-2,2s-2-0.9-2-2V26z M34,58c0-1.1,0.9-2,2-2s2,0.9,2,2v4c0,1.1-0.9,2-2,2s-2-0.9-2-2V58z M50,58c0-1.1,0.9-2,2-2
	s2,0.9,2,2v4c0,1.1-0.9,2-2,2s-2-0.9-2-2V58z M34,78c0-1.1,0.9-2,2-2s2,0.9,2,2v6c0,1.1-0.9,2-2,2s-2-0.9-2-2V78z M50,78
	c0-1.1,0.9-2,2-2s2,0.9,2,2v6c0,1.1-0.9,2-2,2s-2-0.9-2-2V78z M34,4c0-1.1,0.9-2,2-2s2,0.9,2,2v6c0,1.1-0.9,2-2,2s-2-0.9-2-2V4z
	 M50,4c0-1.1,0.9-2,2-2s2,0.9,2,2v6c0,1.1-0.9,2-2,2s-2-0.9-2-2V4z M42,86c0-1.1,0.9-2,2-2s2,0.9,2,2v2h-4V86z M42,18
	c0-1.1,0.9-2,2-2s2,0.9,2,2v10c0,1.1-0.9,2-2,2s-2-0.9-2-2V18z M66,4c0-1.1,0.9-2,2-2s2,0.9,2,2v8c0,1.1-0.9,2-2,2s-2-0.9-2-2V4z
	 M66,76c0-1.1,0.9-2,2-2s2,0.9,2,2v8c0,1.1-0.9,2-2,2s-2-0.9-2-2V76z M18,76c0-1.1,0.9-2,2-2s2,0.9,2,2v8c0,1.1-0.9,2-2,2
	s-2-0.9-2-2V76z M18,4c0-1.1,0.9-2,2-2s2,0.9,2,2v8c0,1.1-0.9,2-2,2s-2-0.9-2-2V4z M42,0h4v2c0,1.1-0.9,2-2,2s-2-0.9-2-2V0z M42,60
	c0-1.1,0.9-2,2-2s2,0.9,2,2v10c0,1.1-0.9,2-2,2s-2-0.9-2-2V60z M56,36c0-1.1,0.9-2,2-2h10c1.1,0,2,0.9,2,2s-0.9,2-2,2H58
	C56.9,38,56,37.1,56,36z M56,52c0-1.1,0.9-2,2-2h10c1.1,0,2,0.9,2,2s-0.9,2-2,2H58C56.9,54,56,53.1,56,52z M28,46c1.1,0,2-0.9,2-2
	s-0.9-2-2-2s-2,0.9-2,2S26.9,46,28,46z M36,72c1.1,0,2-0.9,2-2s-0.9-2-2-2s-2,0.9-2,2S34.9,72,36,72z M52,72c1.1,0,2-0.9,2-2
	s-0.9-2-2-2s-2,0.9-2,2S50.9,72,52,72z M36,20c1.1,0,2-0.9,2-2s-0.9-2-2-2s-2,0.9-2,2S34.9,20,36,20z M52,20c1.1,0,2-0.9,2-2
	s-0.9-2-2-2s-2,0.9-2,2S50.9,20,52,20z M44,12c1.1,0,2-0.9,2-2s-0.9-2-2-2s-2,0.9-2,2S42.9,12,44,12z M44,80c1.1,0,2-0.9,2-2
	s-0.9-2-2-2s-2,0.9-2,2S42.9,80,44,80z M60,46c1.1,0,2-0.9,2-2s-0.9-2-2-2s-2,0.9-2,2S58.9,46,60,46z M76,34c-1.1,0-2,0.9-2,2
	s0.9,2,2,2c3.3,0,6,2.7,6,6s-2.7,6-6,6c-1.1,0-2,0.9-2,2s0.9,2,2,2c5.5,0,10-4.5,10-10S81.5,34,76,34z M12,34c1.1,0,2,0.9,2,2
	s-0.9,2-2,2c-3.3,0-6,2.7-6,6s2.7,6,6,6c1.1,0,2,0.9,2,2s-0.9,2-2,2C6.5,54,2,49.5,2,44S6.5,34,12,34z M68,22c1.1,0,2-0.9,2-2
	s-0.9-2-2-2s-2,0.9-2,2S66.9,22,68,22z M68,70c1.1,0,2-0.9,2-2s-0.9-2-2-2s-2,0.9-2,2S66.9,70,68,70z M20,70c1.1,0,2-0.9,2-2
	s-0.9-2-2-2s-2,0.9-2,2S18.9,70,20,70z M20,22c1.1,0,2-0.9,2-2s-0.9-2-2-2s-2,0.9-2,2S18.9,22,20,22z M44,54c-5.5,0-10-4.5-10-10
	s4.5-10,10-10s10,4.5,10,10S49.5,54,44,54z M44,50c3.3,0,6-2.7,6-6s-2.7-6-6-6s-6,2.7-6,6S40.7,50,44,50z M80,14c-3.3,0-6-2.7-6-6
	s2.7-6,6-6s6,2.7,6,6S83.3,14,80,14z M80,10c1.1,0,2-0.9,2-2s-0.9-2-2-2s-2,0.9-2,2S78.9,10,80,10z M10,44c0-1.1,0.9-2,2-2h8
	c1.1,0,2,0.9,2,2s-0.9,2-2,2h-8C10.9,46,10,45.1,10,44z M66,44c0-1.1,0.9-2,2-2h8c1.1,0,2,0.9,2,2s-0.9,2-2,2h-8
	C66.9,46,66,45.1,66,44z M74,68c0-1.1,0.9-2,2-2h8c1.1,0,2,0.9,2,2s-0.9,2-2,2h-8C74.9,70,74,69.1,74,68z M3,68c0-1.1,0.9-2,2-2h8
	c1.1,0,2,0.9,2,2s-0.9,2-2,2H5C3.9,70,3,69.1,3,68z M3,20c0-1.1,0.9-2,2-2h8c1.1,0,2,0.9,2,2s-0.9,2-2,2H5C3.9,22,3,21.1,3,20z
	 M74,20c0-1.1,0.9-2,2-2h8c1.1,0,2,0.9,2,2s-0.9,2-2,2h-8C74.9,22,74,21.1,74,20z M80,86c-3.3,0-6-2.7-6-6s2.7-6,6-6s6,2.7,6,6
	S83.3,86,80,86z M80,82c1.1,0,2-0.9,2-2s-0.9-2-2-2s-2,0.9-2,2S78.9,82,80,82z M8,86c-3.3,0-6-2.7-6-6s2.7-6,6-6s6,2.7,6,6
	S11.3,86,8,86z M8,82c1.1,0,2-0.9,2-2s-0.9-2-2-2s-2,0.9-2,2S6.9,82,8,82z M8,14c-3.3,0-6-2.7-6-6s2.7-6,6-6s6,2.7,6,6S11.3,14,8,14
	z M8,10c1.1,0,2-0.9,2-2S9.1,6,8,6S6,6.9,6,8S6.9,10,8,10z M44,46c1.1,0,2-0.9,2-2s-0.9-2-2-2s-2,0.9-2,2S42.9,46,44,46z"/>
</svg>
